<svg xmlns="http://www.w3.org/2000/svg" xmlns:xlink="http://www.w3.org/1999/xlink" viewBox="0 0 512.01 384"><defs><style>.cls-1{fill:url(#linear-gradient);}</style><linearGradient id="linear-gradient" y1="256" x2="512.01" y2="256" gradientUnits="userSpaceOnUse"><stop offset="0" stop-color="#00f0ff"/><stop offset="1" stop-color="#fa00ff"/></linearGradient></defs><path class="cls-1" d="M215,71.05l-89,88.95H24A24,24,0,0,0,0,184V328a24,24,0,0,0,24,24H126.06l89,89c15,15,41,4.47,41-17V88C256,66.56,230,56,215,71.05ZM461.64,256l45.64-45.64a16.14,16.14,0,0,0,0-22.82l-22.82-22.82a16.14,16.14,0,0,0-22.82,0L416,210.36l-45.64-45.64a16.14,16.14,0,0,0-22.82,0l-22.82,22.82a16.14,16.14,0,0,0,0,22.82L370.36,256l-45.63,45.63a16.14,16.14,0,0,0,0,22.82l22.82,22.82a16.14,16.14,0,0,0,22.82,0L416,301.64l45.64,45.64a16.14,16.14,0,0,0,22.82,0l22.82-22.82a16.14,16.14,0,0,0,0-22.82Z" transform="translate(0 -64)"/></svg>