<svg xmlns="http://www.w3.org/2000/svg" xmlns:xlink="http://www.w3.org/1999/xlink" viewBox="0 0 448 448"><defs><style>.cls-1{fill:url(#linear-gradient);}</style><linearGradient id="linear-gradient" y1="255" x2="448" y2="255" gradientUnits="userSpaceOnUse"><stop offset="0" stop-color="#00f0ff"/><stop offset="1" stop-color="#fa00ff"/></linearGradient></defs><path class="cls-1" d="M144,479H48A48,48,0,0,1,0,431V79A48,48,0,0,1,48,31h96a48,48,0,0,1,48,48V431A48,48,0,0,1,144,479Zm304-48V79a48,48,0,0,0-48-48H304a48,48,0,0,0-48,48V431a48,48,0,0,0,48,48h96A48,48,0,0,0,448,431Z" transform="translate(0 -31)"/></svg>