<svg xmlns="http://www.w3.org/2000/svg" xmlns:xlink="http://www.w3.org/1999/xlink" viewBox="0 0 384.01 384"><defs><style>.cls-1{fill:url(#linear-gradient);}</style><linearGradient id="linear-gradient" y1="257" x2="384.01" y2="257" gradientUnits="userSpaceOnUse"><stop offset="0" stop-color="#00f0ff"/><stop offset="1" stop-color="#fa00ff"/></linearGradient></defs><path class="cls-1" d="M215,72l-89,89H24A24,24,0,0,0,0,185V329a24,24,0,0,0,24,24H126.06l89,89c15,15,41,4.47,41-17V89C256,67.55,230,57,215,72Zm123.2,108.08a24,24,0,1,0-23.16,42.06,39.43,39.43,0,0,1,0,69.63,24,24,0,1,0,23.16,42.06A87.44,87.44,0,0,0,338.23,180.12Z" transform="translate(0 -65)"/></svg>