<svg xmlns="http://www.w3.org/2000/svg" xmlns:xlink="http://www.w3.org/1999/xlink" viewBox="0 0 50 50"><defs><style>.cls-1{fill:url(#linear-gradient);}.cls-2{fill:url(#linear-gradient-2);}.cls-3{fill:url(#linear-gradient-3);}.cls-4{fill:url(#linear-gradient-4);}</style><linearGradient id="linear-gradient" x1="-12.5" y1="25" x2="59.17" y2="25" gradientUnits="userSpaceOnUse"><stop offset="0" stop-color="#00f0ff"/><stop offset="1" stop-color="#fa00ff"/></linearGradient><linearGradient id="linear-gradient-2" x1="15.4" y1="26.93" x2="26.93" y2="26.93" gradientTransform="matrix(1, 0, 0, -1, 0, 50.65)" xlink:href="#linear-gradient"/><linearGradient id="linear-gradient-3" x1="4.58" y1="27.01" x2="44.47" y2="27.01" gradientTransform="matrix(1, 0, 0, -1, 0, 50.65)" xlink:href="#linear-gradient"/><linearGradient id="linear-gradient-4" x1="26.64" y1="27.25" x2="36.26" y2="27.25" gradientTransform="matrix(1, 0, 0, -1, 0, 50.65)" xlink:href="#linear-gradient"/></defs><path class="cls-1" d="M25,0A25,25,0,1,0,50,25,25,25,0,0,0,25,0Zm0,48.46A23.46,23.46,0,1,1,48.46,25,23.46,23.46,0,0,1,25,48.46Z"/><path class="cls-2" d="M17.41,19.76v7.93h8L23.78,26H19.09V21.41Z"/><path class="cls-3" d="M39.12,35.87l-2.41-2.41v2.17H13.22V32.2h1.68V30.88H13.22v-5.5h1.68V24.06H13.22V18.77h1.68V17.44H13.22V12.82l13.37,13.1V23.59L13,10.24a0.85,0.85,0,0,0-1.29.13,0.82,0.82,0,0,0-.14.46V36.45a0.82,0.82,0,0,0,.25.58,0.85,0.85,0,0,0,.59.24H38.52A0.85,0.85,0,0,0,39,37.14a0.83,0.83,0,0,0,.31-0.37A0.82,0.82,0,0,0,39.12,35.87Z"/><path class="cls-4" d="M30,34.37h3.36a1.69,1.69,0,0,0,1.19-.48A1.64,1.64,0,0,0,35,32.71v-16l-1.93-3.5a1.67,1.67,0,0,0-.62-0.61,1.72,1.72,0,0,0-1.72,0,1.66,1.66,0,0,0-.61.65l-1.83,3.45V32.71a1.64,1.64,0,0,0,.49,1.17A1.69,1.69,0,0,0,30,34.37Zm0-17.19,1.63-3.12,1.73,3.12V29.41H30V17.18Zm0,13.58h3.36v2H30v-2Z"/></svg>