<svg xmlns="http://www.w3.org/2000/svg" xmlns:xlink="http://www.w3.org/1999/xlink" viewBox="0 0 50 50"><defs><style>.cls-1{fill:url(#linear-gradient);}.cls-2{fill:url(#linear-gradient-2);}</style><linearGradient id="linear-gradient" x1="-12.5" y1="25" x2="59.17" y2="25" gradientUnits="userSpaceOnUse"><stop offset="0" stop-color="#00f0ff"/><stop offset="1" stop-color="#fa00ff"/></linearGradient><linearGradient id="linear-gradient-2" x1="-2.12" y1="27.96" x2="49.7" y2="27.96" gradientTransform="matrix(1, 0, 0, -1, 0, 50.65)" xlink:href="#linear-gradient"/></defs><path class="cls-1" d="M25,0A25,25,0,1,0,50,25,25,25,0,0,0,25,0Zm0,48.46A23.46,23.46,0,1,1,48.46,25,23.46,23.46,0,0,1,25,48.46Z"/><path class="cls-2" d="M28.72,19.36L25,10.54l-3.72,8.83-9.48.84L19,26.5l-2.14,9.34L25,30.89l8.16,4.94L31,26.48l7.18-6.29-9.49-.84h0ZM36.18,40L25,33.24,13.83,40l2.93-12.78L6.92,18.61l13-1.14L25,5.38l5.09,12.07,13,1.15-9.83,8.6Z"/></svg>