<svg xmlns="http://www.w3.org/2000/svg" xmlns:xlink="http://www.w3.org/1999/xlink" viewBox="0 0 50 50"><defs><style>.cls-1{fill:url(#linear-gradient);}.cls-2{fill:url(#linear-gradient-2);}</style><linearGradient id="linear-gradient" x1="-12.5" y1="25" x2="59.17" y2="25" gradientUnits="userSpaceOnUse"><stop offset="0" stop-color="#00f0ff"/><stop offset="1" stop-color="#fa00ff"/></linearGradient><linearGradient id="linear-gradient-2" x1="5.96" y1="25.27" x2="42.35" y2="25.27" gradientTransform="matrix(1, 0, 0, -1, 0, 50.65)" xlink:href="#linear-gradient"/></defs><path class="cls-1" d="M25,0A25,25,0,1,0,50,25,25,25,0,0,0,25,0Zm0,48.46A23.46,23.46,0,1,1,48.46,25,23.46,23.46,0,0,1,25,48.46Z"/><path class="cls-2" d="M12.31,36.92V30.14h5.34v6.79H12.31Zm1.34-5.43v4.07h2.67V31.49H13.64ZM19,36.92V24.71h5.34V36.92H19Zm1.34-10.86v9.5H23v-9.5H20.32Zm5.34,10.86V19.28H31V36.92H25.67ZM27,20.63V35.57h2.67V20.63H27Zm5.34,16.29V13.85h5.34V36.92H32.35ZM33.68,15.2V35.57h2.67V15.2H33.68Z"/></svg>