<svg xmlns="http://www.w3.org/2000/svg" xmlns:xlink="http://www.w3.org/1999/xlink" viewBox="0 0 50 50"><defs><style>.cls-1{fill:url(#linear-gradient);}.cls-2{fill:url(#linear-gradient-2);}.cls-3{fill:url(#linear-gradient-3);}</style><linearGradient id="linear-gradient" x1="-12.5" y1="25" x2="59.17" y2="25" gradientUnits="userSpaceOnUse"><stop offset="0" stop-color="#00f0ff"/><stop offset="1" stop-color="#fa00ff"/></linearGradient><linearGradient id="linear-gradient-2" x1="13.94" y1="29.72" x2="19.24" y2="29.72" gradientTransform="matrix(1, 0, 0, -1, 0, 50.65)" xlink:href="#linear-gradient"/><linearGradient id="linear-gradient-3" x1="-1.15" y1="26.61" x2="49.56" y2="26.61" gradientTransform="matrix(1, 0, 0, -1, 0, 50.65)" xlink:href="#linear-gradient"/></defs><path class="cls-1" d="M25,0A25,25,0,1,0,50,25,25,25,0,0,0,25,0Zm0,48.46A23.46,23.46,0,1,1,48.46,25,23.46,23.46,0,0,1,25,48.46Z"/><path class="cls-2" d="M15.56,20a0.69,0.69,0,0,0-.48,1.19,2.38,2.38,0,0,0,3.28,0,0.69,0.69,0,0,0-1-1,1,1,0,0,1-1.36,0A0.69,0.69,0,0,0,15.56,20Z"/><path class="cls-3" d="M43.06,23.77a0.69,0.69,0,0,0-.45-0.82A4.63,4.63,0,0,1,39,18.45V17a8,8,0,0,0-1.52-5.2A5.14,5.14,0,0,0,33.38,10a5.13,5.13,0,0,0-4,1.79A7.91,7.91,0,0,0,27.75,17v1.45A4.22,4.22,0,0,1,26,22a4.42,4.42,0,0,0-5,2.78l-1.44-.4V24a5.93,5.93,0,0,0,3.1-5.21V16a5.92,5.92,0,1,0-11.85,0v2.74A5.93,5.93,0,0,0,13.89,24v0.46L13,24.66c-2.34.63-5.25,1.42-5.31,5v6.06a0.69,0.69,0,0,0,.69.69h9.35v1h0a0.69,0.69,0,0,0,.69.69H22a0.69,0.69,0,1,0,0-1.38h-2.9V36.28a4,4,0,0,1,.2-1.26c0.43-1.25,1.56-1.58,3.09-2l0.22-.06a2.6,2.6,0,0,0,2.44,1.71,2.63,2.63,0,0,0,2.56-1.71L27.83,33c2,0.58,3.25,1,3.29,3.29v0.41h-2.9a0.69,0.69,0,0,0,0,1.38h3.59a0.69,0.69,0,0,0,.69-0.69h0v-1h9.22a0.69,0.69,0,0,0,.69-0.69v-6h0a4.23,4.23,0,0,0-1.25-3.14A3.6,3.6,0,0,0,43.06,23.77ZM33.38,11.38a3.76,3.76,0,0,1,3,1.3,6.22,6.22,0,0,1,1.19,3.76A3.11,3.11,0,0,1,34,14.84a0.7,0.7,0,0,0-1.23,0,3.11,3.11,0,0,1-3.62,1.6C29.31,13.26,30.86,11.38,33.38,11.38Zm-4.25,6.46a6.23,6.23,0,0,0,.86.06,4.27,4.27,0,0,0,3.39-1.5,4.27,4.27,0,0,0,3.39,1.5,6.23,6.23,0,0,0,.86-0.06v0.61a4.25,4.25,0,1,1-8.5,0V17.84h0Zm5.69,6.05v1a1.44,1.44,0,0,1-2.88,0v-1A5.62,5.62,0,0,0,34.82,23.89Zm-6.34-2.67a5.68,5.68,0,0,0,2.08,2.1v1.1l-0.89.25-0.43.12a4.46,4.46,0,0,0-1.8-2.17A5.49,5.49,0,0,0,28.48,21.22Zm-6.19,4a3,3,0,0,1,5.8.57,6.92,6.92,0,0,0-6,0A3,3,0,0,1,22.3,25.23ZM12.17,16a4.54,4.54,0,1,1,9.08,0v0.72a9.91,9.91,0,0,1-5.79-1.31,0.69,0.69,0,0,0-.94.15,3,3,0,0,1-2.35,1.08V16h0Zm0,2.74V18a4.82,4.82,0,0,0,3-1.16,11.79,11.79,0,0,0,6.06,1.23v0.65A4.54,4.54,0,0,1,12.17,18.75Zm6,5.75v0.42h0a1.44,1.44,0,0,1-2.88,0h0V24.49A5.92,5.92,0,0,0,18.16,24.49Zm4.3,7L22,31.66c-1.71.5-3.61,1.06-4.14,3.35h-5.1v-2.8a0.69,0.69,0,1,0-1.38,0V35H9.07V29.67c0-2.36,1.65-3,4.29-3.67L14,25.81a2.82,2.82,0,0,0,5.36,0l1.3,0.36c0,0.07,0,.13,0,0.2v1a4.42,4.42,0,0,0,1.77,3.54v0.64ZM26.38,32h0a1.27,1.27,0,0,1-2.54,0h0V31.58a4.26,4.26,0,0,0,.52.12,4.41,4.41,0,0,0,1.38,0,4.25,4.25,0,0,0,.64-0.14V32Zm0.37-2.12a3,3,0,0,1-4.68-2.49,5.56,5.56,0,0,1,6.08,0A3,3,0,0,1,26.75,29.91ZM41,35H38.71v-2.8a0.69,0.69,0,0,0-1.38,0V35h-5c-0.53-2.29-2.43-2.85-4.14-3.35l-0.45-.13V30.88a4.42,4.42,0,0,0,1.77-3.54v-1c0-.08,0-0.17,0-0.25L30,26l0.68-.19a2.82,2.82,0,0,0,5.36,0L36.73,26C39.38,26.71,41,27.31,41,29.67V35h0Zm-1.36-9.5a15.88,15.88,0,0,0-2.57-.85l-0.89-.25v-1.1a5.68,5.68,0,0,0,2.07-2.09A6.36,6.36,0,0,0,41.54,24,2,2,0,0,1,39.66,25.52Z"/></svg>